<svg width="23" height="18" viewBox="0 0 23 18" fill="none" xmlns="http://www.w3.org/2000/svg">
<path d="M22.4175 1.125V5.625L11.4175 10.125L0.41748 5.625V1.125C0.41748 0.826631 0.533373 0.540484 0.739663 0.329505C0.945953 0.118527 1.22574 0 1.51748 0H21.3175C21.6092 0 21.889 0.118527 22.0953 0.329505C22.3016 0.540484 22.4175 0.826631 22.4175 1.125ZM0.41748 8.04825V16.875C0.41748 17.1734 0.533373 17.4595 0.739663 17.6705C0.945953 17.8815 1.22574 18 1.51748 18H21.3175C21.6092 18 21.889 17.8815 22.0953 17.6705C22.3016 17.4595 22.4175 17.1734 22.4175 16.875V8.04825L11.4175 12.5483L0.41748 8.04825Z" fill="#FFFDEF"/>
</svg>
