<svg width="23" height="22" viewBox="0 0 23 22" fill="none" xmlns="http://www.w3.org/2000/svg">
<path fill-rule="evenodd" clip-rule="evenodd" d="M11.4175 0C17.4928 0 22.4175 5.04892 22.4175 11.2782C22.4175 16.2601 19.2693 20.4863 14.9012 21.979C14.3435 22.0901 14.1455 21.7379 14.1455 21.4376C14.1455 21.0658 14.1587 19.8515 14.1587 18.3423C14.1587 17.2907 13.8067 16.6043 13.4118 16.2545C15.8615 15.9751 18.4355 15.0213 18.4355 10.6895C18.4355 9.45754 18.0087 8.45219 17.3025 7.66239C17.4169 7.37749 17.7942 6.23034 17.1947 4.67714C17.1947 4.67714 16.2729 4.37494 14.173 5.83354C13.2941 5.58384 12.3525 5.4582 11.4175 5.4538C10.4825 5.4582 9.54198 5.58384 8.66418 5.83354C6.56208 4.37494 5.63808 4.67714 5.63808 4.67714C5.04078 6.23034 5.41808 7.37749 5.53138 7.66239C4.82848 8.45219 4.39838 9.45754 4.39838 10.6895C4.39838 15.0103 6.96688 15.9788 9.40998 16.2637C9.09538 16.5453 8.81048 17.042 8.71148 17.7713C8.08448 18.0595 6.49168 18.5583 5.51048 16.8346C5.51048 16.8346 4.92858 15.751 3.82418 15.6718C3.82418 15.6718 2.75168 15.6575 3.74938 16.3571C3.74938 16.3571 4.46988 16.7036 4.97038 18.0071C4.97038 18.0071 5.61608 20.0201 8.67628 19.3381C8.68178 20.2808 8.69168 21.1692 8.69168 21.4376C8.69168 21.7357 8.48928 22.0846 7.94038 21.9801C3.56898 20.4896 0.41748 16.2612 0.41748 11.2782C0.41748 5.04892 5.34328 0 11.4175 0Z" fill="#FFFDEF"/>
</svg>
