<svg width="23" height="22" viewBox="0 0 23 22" fill="none" xmlns="http://www.w3.org/2000/svg">
<path fill-rule="evenodd" clip-rule="evenodd" d="M0.41748 4.4C0.41748 1.96995 2.38743 0 4.81748 0H18.0175C20.4475 0 22.4175 1.96995 22.4175 4.4V17.6C22.4175 20.03 20.4475 22 18.0175 22H4.81748C2.38743 22 0.41748 20.03 0.41748 17.6V4.4ZM4.81748 2.2C3.60245 2.2 2.61748 3.18497 2.61748 4.4V17.6C2.61748 18.8151 3.60245 19.8 4.81748 19.8H18.0175C19.2325 19.8 20.2175 18.8151 20.2175 17.6V4.4C20.2175 3.18497 19.2325 2.2 18.0175 2.2H4.81748ZM11.4175 7.7C9.59489 7.7 8.11748 9.17741 8.11748 11C8.11748 12.8226 9.59489 14.3 11.4175 14.3C13.2401 14.3 14.7175 12.8226 14.7175 11C14.7175 9.17741 13.2401 7.7 11.4175 7.7ZM5.91748 11C5.91748 7.96244 8.37992 5.5 11.4175 5.5C14.455 5.5 16.9175 7.96244 16.9175 11C16.9175 14.0375 14.455 16.5 11.4175 16.5C8.37992 16.5 5.91748 14.0375 5.91748 11ZM17.4675 6.6C18.3787 6.6 19.1175 5.86127 19.1175 4.95C19.1175 4.03873 18.3787 3.3 17.4675 3.3C16.5562 3.3 15.8175 4.03873 15.8175 4.95C15.8175 5.86127 16.5562 6.6 17.4675 6.6Z" fill="#FFFDEF"/>
</svg>
