<svg width="23" height="22" viewBox="0 0 23 22" fill="none" xmlns="http://www.w3.org/2000/svg">
<path d="M19.1633 18.7458H15.9036V13.64C15.9036 12.4226 15.8816 10.8552 14.2078 10.8552C12.5101 10.8552 12.2498 12.1825 12.2498 13.5501V18.7458H8.99015V8.24633H12.1196V9.68183H12.1636C12.8016 8.59283 13.9896 7.94017 15.251 7.986C18.5546 7.986 19.1651 10.1585 19.1651 12.9873L19.1633 18.744V18.7458ZM5.31248 6.81084C4.81175 6.80843 4.33219 6.60857 3.97794 6.25467C3.62369 5.90077 3.42337 5.4214 3.42048 4.92068C3.42048 3.88301 4.27481 3.02868 5.31248 3.02868C6.35015 3.02868 7.20265 3.88301 7.20448 4.92068C7.20448 5.95834 6.35015 6.81084 5.31248 6.81084ZM6.94231 18.7458H3.67898V8.24633H6.94231V18.7458ZM20.7858 2.72492e-05H2.03998C1.61492 -0.00244156 1.20607 0.162936 0.902256 0.460222C0.598447 0.757508 0.424236 1.16268 0.41748 1.58769V20.4123C0.424236 20.8373 0.598447 21.2425 0.902256 21.5398C1.20607 21.837 1.61492 22.0024 2.03998 21.9999H20.7876C21.2137 22.0034 21.6239 21.8386 21.9291 21.5413C22.2342 21.244 22.4098 20.8383 22.4175 20.4123V1.58585C22.4098 1.16021 22.2341 0.75486 21.9288 0.458155C21.6235 0.161449 21.2133 -0.00256345 20.7876 0.00186044L20.7858 2.72492e-05Z" fill="#FFFDEF"/>
</svg>
