<svg width="25" height="25" viewBox="0 0 25 25" fill="none" xmlns="http://www.w3.org/2000/svg">
<path d="M0.384893 0.273604C0.500596 0.179069 0.64116 0.119995 0.789659 0.103495C0.938157 0.0869956 1.08826 0.113773 1.22189 0.180604L24.4719 11.8056C24.6009 11.8699 24.7094 11.9688 24.7852 12.0914C24.861 12.2139 24.9012 12.3551 24.9012 12.4992C24.9012 12.6433 24.861 12.7846 24.7852 12.9071C24.7094 13.0296 24.6009 13.1286 24.4719 13.1929L1.22189 24.8179C1.08839 24.8847 0.938425 24.9116 0.790015 24.8953C0.641606 24.8789 0.501075 24.8201 0.385322 24.7257C0.269569 24.6314 0.18352 24.5057 0.137524 24.3637C0.091527 24.2216 0.0875401 24.0693 0.126043 23.9251L3.17334 12.5L0.126043 1.07495C0.087355 0.930644 0.091205 0.778227 0.137129 0.636054C0.183054 0.493881 0.269095 0.368013 0.384893 0.273604ZM4.56989 13.275L2.06819 22.6618L22.3918 12.5L2.06664 2.3382L4.56989 11.725H14.8247C15.0302 11.725 15.2274 11.8067 15.3727 11.952C15.518 12.0973 15.5997 12.2945 15.5997 12.5C15.5997 12.7055 15.518 12.9027 15.3727 13.048C15.2274 13.1934 15.0302 13.275 14.8247 13.275H4.56989Z" fill="#1B1F52"/>
</svg>
